Coordinates
version=1
nRows=18
nColumns=22
inDegrees=yes

Units are S.I. units (second, meters, Newtons, ...)
If the header above contains a line with 'inDegrees', this indicates whether rotational values are in degrees (yes) or radians (no).

endheader
time	pelvis_tilt	pelvis_list	pelvis_rotation	pelvis_tx	pelvis_ty	pelvis_tz	hip_flexion_r	hip_adduction_r	hip_rotation_r	knee_angle_r	ankle_angle_r	subtalar_angle_r	hip_flexion_l	hip_adduction_l	hip_rotation_l	knee_angle_l	ankle_angle_l	subtalar_angle_l	lumbar_extension	lumbar_bending	lumbar_rotation
      0.01000000	     -0.65159045	     -2.48402438	     -1.00984531	     -0.78333253	      0.94322043	     -0.68846279	      3.65313249	      1.94275529	    -10.03826863	    -13.48952914	     10.84491031	     -0.40969291	      7.10242997	     -4.03183146	     -9.91700479	    -20.15804562	     12.47130032	     -0.07924978	     -7.35264898	     -0.82358268	     -4.21578536
      0.02000000	     -0.64616403	     -2.51400321	     -1.01351263	     -0.78308711	      0.94318075	     -0.68851272	      3.62845933	      1.97511005	    -10.02565451	    -13.48409895	     10.83932312	     -0.46350599	      7.10860773	     -4.06476817	     -9.91130702	    -20.21557374	     12.54218500	     -0.15041803	     -7.34744560	     -0.79495022	     -4.19836810
      0.03000000	     -0.64446310	     -2.51656315	     -1.01724765	     -0.78279994	      0.94314251	     -0.68859080	      3.60874270	      1.97373109	    -10.01836152	    -13.48505879	     10.84724865	     -0.46978138	      7.11168671	     -4.06296062	     -9.89687509	    -20.26121377	     12.54793664	     -0.16273199	     -7.33577846	     -0.79927204	     -4.18135150
      0.04000000	     -0.64507323	     -2.52149573	     -1.01851713	     -0.78246032	      0.94310636	     -0.68868508	      3.59291985	      1.97324448	    -10.01470323	    -13.49574850	     10.84871351	     -0.47102444	      7.10087086	     -4.06213713	     -9.89184666	    -20.28078214	     12.54973525	     -0.16506616	     -7.31530224	     -0.79904331	     -4.17934595
      0.05000000	     -0.64019798	     -2.55712017	     -1.01011068	     -0.78215354	      0.94305321	     -0.68878255	      3.55702500	      2.01165133	     -9.99260181	    -13.47744547	     10.89233708	     -0.50098456	      7.12074531	     -4.10052726	     -9.87713311	    -20.36810336	     12.62663946	     -0.22181034	     -7.31366676	     -0.76392483	     -4.17033422
      0.06000000	     -0.64244585	     -2.56140359	     -1.01104455	     -0.78180837	      0.94301815	     -0.68889245	      3.54148135	      2.00959091	     -9.99034026	    -13.48630892	     10.89141963	     -0.50251109	      7.11017478	     -4.09760021	     -9.87171757	    -20.38571272	     12.62772505	     -0.22411526	     -7.29601802	     -0.76466290	     -4.16676586
      0.07000000	     -0.63867435	     -2.56780515	     -1.00772394	     -0.78149525	      0.94298970	     -0.68900537	      3.50713468	      2.01262170	     -9.98231755	    -13.46707565	     10.90254964	     -0.51258352	      7.11033017	     -4.09634288	     -9.84681300	    -20.43443464	     12.65549013	     -0.24233642	     -7.29678918	     -0.76697883	     -4.13841310
      0.08000000	     -0.64388981	     -2.57419518	     -1.00845589	     -0.78116588	      0.94295856	     -0.68912062	      3.49321613	      2.01246250	     -9.97953670	    -13.47285160	     10.90378350	     -0.51382803	      7.09880580	     -4.09485063	     -9.84444735	    -20.44396811	     12.65873659	     -0.24468920	     -7.28307643	     -0.76642977	     -4.13854777
      0.09000000	     -0.61852679	     -2.60009454	     -1.01516041	     -0.78080380	      0.94297673	     -0.68921218	      3.40933541	      2.04269519	     -9.93721001	    -13.41104375	     10.93476120	     -0.54171121	      7.03974389	     -4.11306413	     -9.83667541	    -20.43787525	     12.75135835	     -0.31044403	     -7.30634437	     -0.74519520	     -4.12966446
      0.10000000	     -0.63075445	     -2.60239823	     -1.02352307	     -0.78044783	      0.94295345	     -0.68931378	      3.38103361	      2.03994329	     -9.94706225	    -13.37698412	     10.93690746	     -0.54443532	      7.01857324	     -4.10649870	     -9.84637302	    -20.42187322	     12.75744784	     -0.32172371	     -7.28375417	     -0.75292739	     -4.11318912
      0.11000000	     -0.60813656	     -2.60018657	     -1.04705139	     -0.78007444	      0.94299948	     -0.68938592	      3.30329041	      2.03822214	     -9.89229692	    -13.32133553	     10.93941175	     -0.54894338	      6.93213728	     -4.09008327	     -9.85586701	    -20.36352089	     12.79036693	     -0.36657072	     -7.30289412	     -0.76916813	     -4.08821011
      0.12000000	     -0.62917263	     -2.60596761	     -1.05618110	     -0.77971021	      0.94297638	     -0.68948203	      3.27950859	      2.03915244	     -9.90867427	    -13.27895485	     10.94550987	     -0.54741531	      6.90642350	     -4.08774424	     -9.87730646	    -20.32456337	     12.79722150	     -0.37231357	     -7.27040177	     -0.77265871	     -4.08331329
      0.13000000	     -0.62774298	     -2.60124158	     -1.08024581	     -0.77933984	      0.94300367	     -0.68954835	      3.21734517	      2.03541619	     -9.86546208	    -13.20966193	     10.93956742	     -0.53998806	      6.83445916	     -4.06708168	     -9.88288847	    -20.24961240	     12.82105501	     -0.39231078	     -7.26516544	     -0.79308350	     -4.06417501
      0.14000000	     -0.65570896	     -2.60871900	     -1.08985227	     -0.77899204	      0.94298124	     -0.68963966	      3.19841020	      2.03901308	     -9.88433397	    -13.16082309	     10.94534373	     -0.53748435	      6.80909884	     -4.06625825	     -9.90789254	    -20.19637209	     12.82699214	     -0.39622155	     -7.22861827	     -0.79413394	     -4.06425112
      0.15000000	     -0.67060848	     -2.60563752	     -1.10627305	     -0.77866617	      0.94299388	     -0.68972126	      3.15302026	      2.03650794	     -9.85001510	    -13.08400128	     10.93053046	     -0.52957001	      6.75430008	     -4.04628297	     -9.90684108	    -20.11230780	     12.83996537	     -0.41147183	     -7.21336426	     -0.81178353	     -4.05115052
      0.16000000	     -0.70023828	     -2.61359961	     -1.11479626	     -0.77834199	      0.94297256	     -0.68981301	      3.13514584	      2.04129989	     -9.86504522	    -13.03215681	     10.93326868	     -0.52671251	      6.72840141	     -4.04503526	     -9.92865438	    -20.05231546	     12.84502973	     -0.41629535	     -7.17717818	     -0.81360466	     -4.05285839
      0.17000000	     -0.73357090	     -2.61784671	     -1.12049278	     -0.77804761	      0.94295549	     -0.68991212	      3.11611809	      2.04398219	     -9.86557076	    -12.96689190	     10.92958468	     -0.52347401	      6.70409177	     -4.03693487	     -9.93883790	    -19.98153171	     12.85362889	     -0.42129924	     -7.14427874	     -0.82028439	     -4.05158958
      0.18000000	     -0.76705129	     -2.62019516	     -1.12529634	     -0.77776380	      0.94294268	     -0.69001767	      3.09480029	      2.04552964	     -9.85704848	    -12.89520658	     10.91952286	     -0.51978667	      6.67692732	     -4.02493847	     -9.94218501	    -19.90394900	     12.86218612	     -0.42669785	     -7.11373851	     -0.82733343	     -4.05102982
